<svg xmlns="http://www.w3.org/2000/svg" width="16" height="16" viewBox="0 0 16 16">
  <g fill="#2e3436">
    <!-- steam -->
    <g fill="none" stroke="#2e3436" stroke-width="1" stroke-linecap="round">
      <path d="M6 5.5 C5.2 4.6 6.8 4 6 3.1 C5.6 2.6 6 2.2 6 2.1"/>
      <path d="M9 5.5 C8.2 4.6 9.8 4 9 3.1 C8.6 2.6 9 2.2 9 2.1"/>
    </g>
    <!-- handle -->
    <path d="M11 7.4 C13.1 7.4 13.1 11.2 11 11.2 L11 9.9 C11.9 9.9 11.9 8.7 11 8.7 Z"/>
    <!-- cup body -->
    <path d="M3.4 6.8 L11.2 6.8 L10.5 12.1 C10.4 13 9.7 13.5 8.9 13.5 L5.7 13.5 C4.9 13.5 4.2 13 4.1 12.1 Z"/>
  </g>

</svg>
