<?xml version="1.0" encoding="UTF-8"?>
<svg xmlns="http://www.w3.org/2000/svg" width="128" height="128" viewBox="0 0 128 128">
  <defs>
    <linearGradient id="bg" x1="64" y1="4" x2="64" y2="124" gradientUnits="userSpaceOnUse">
      <stop offset="0" stop-color="#62a0ea"/>
      <stop offset="1" stop-color="#3584e4"/>
    </linearGradient>
    <linearGradient id="cup" x1="64" y1="58" x2="64" y2="96" gradientUnits="userSpaceOnUse">
      <stop offset="0" stop-color="#ffffff"/>
      <stop offset="1" stop-color="#f0eff2"/>
    </linearGradient>
  </defs>

  <!-- Adwaita base plate -->
  <rect x="4" y="4" width="120" height="120" rx="26" fill="url(#bg)"/>
  <rect x="4" y="4" width="120" height="120" rx="26" fill="none" stroke="#1a5fb4" stroke-opacity="0.35" stroke-width="1.5"/>

  <!-- soft shadow under the cup -->
  <ellipse cx="63" cy="97" rx="24" ry="4" fill="#1a5fb4" fill-opacity="0.25"/>

  <!-- steam -->
  <g fill="none" stroke="#ffffff" stroke-width="3.4" stroke-linecap="round" stroke-opacity="0.85">
    <path d="M58 54 C54 48 62 44 58 38 C55 33.5 59 30.5 59 29.5"/>
    <path d="M64 55 C60 49 68 45 64 39 C61 34.5 65 31.5 65 30.5"/>
    <path d="M70 54 C66 48 74 44 70 38 C67 33.5 71 30.5 71 29.5"/>
  </g>

  <!-- handle -->
  <path d="M80 64 C93 64 93 86 80 86 L80 80 C85 80 85 70 80 70 Z" fill="url(#cup)"/>

  <!-- cup body -->
  <path d="M45 60 L83 60 L79 90 C78.5 94 75 96 71 96 L57 96 C53 96 49.5 94 49 90 Z" fill="url(#cup)"/>
  <!-- coffee surface -->
  <ellipse cx="64" cy="61" rx="19" ry="3.6" fill="#986a44"/>

</svg>
